<?xml version="1.0" standalone="no"?>
<!DOCTYPE svg PUBLIC "-//W3C//DTD SVG 20010904//EN"
 "http://www.w3.org/TR/2001/REC-SVG-20010904/DTD/svg10.dtd">
<svg version="1.0" xmlns="http://www.w3.org/2000/svg"
 width="558.000000pt" height="558.000000pt" viewBox="0 0 558.000000 558.000000"
 preserveAspectRatio="xMidYMid meet">
<metadata>
Created by potrace 1.11, written by Peter Selinger 2001-2013
</metadata>
<g transform="translate(0.000000,558.000000) scale(0.100000,-0.100000)"
fill="#000000" stroke="none">
<path d="M0 2790 l0 -2790 2790 0 2790 0 0 2790 0 2790 -2790 0 -2790 0 0
-2790z m4188 2373 c31 -21 59 -41 60 -45 2 -5 10 -8 17 -8 7 0 15 -3 17 -7 4
-10 85 -63 96 -63 4 0 14 -9 22 -20 8 -11 18 -20 22 -20 7 0 72 -40 93 -58 6
-5 24 -17 40 -28 17 -10 35 -23 41 -29 30 -26 55 -45 60 -45 3 0 24 -16 47
-35 22 -19 44 -35 48 -35 12 0 283 -272 314 -315 16 -22 31 -42 34 -45 4 -3
13 -18 21 -35 8 -16 20 -35 26 -42 6 -7 18 -32 25 -57 7 -26 17 -46 21 -46 4
0 8 -13 8 -29 0 -17 5 -33 10 -36 6 -4 10 -53 10 -116 0 -66 -4 -109 -10 -109
-5 0 -10 -12 -10 -28 0 -24 -34 -132 -59 -187 -5 -11 -15 -35 -23 -52 -7 -18
-16 -33 -20 -33 -5 0 -8 -9 -8 -20 0 -11 -4 -20 -8 -20 -5 0 -17 -20 -28 -45
-10 -25 -22 -45 -26 -45 -4 0 -8 -7 -8 -15 0 -8 -4 -15 -8 -15 -5 0 -17 -18
-27 -40 -10 -22 -22 -40 -27 -40 -4 0 -8 -5 -8 -11 0 -7 -8 -19 -18 -28 -10
-9 -27 -31 -37 -48 -11 -18 -23 -33 -27 -33 -4 0 -8 -6 -8 -12 0 -7 -14 -29
-31 -48 -16 -19 -37 -47 -47 -62 -9 -16 -20 -28 -24 -28 -4 0 -8 -5 -8 -11 0
-6 -6 -16 -12 -23 -33 -34 -58 -67 -58 -76 0 -6 -3 -10 -7 -10 -5 0 -21 -20
-38 -45 -16 -24 -33 -45 -37 -45 -5 0 -8 -6 -8 -14 0 -20 -56 -65 -88 -72 -15
-3 -35 -9 -44 -15 -10 -5 -29 -9 -43 -9 -14 0 -25 -4 -25 -10 0 -5 -13 -10
-29 -10 -17 0 -33 -4 -36 -10 -3 -5 -16 -10 -28 -10 -12 -1 -39 -7 -59 -14
-31 -11 -38 -11 -38 -1 0 8 7 20 15 29 8 8 15 19 15 25 0 6 5 11 10 11 6 0 10
5 10 12 0 6 11 26 25 44 14 18 25 37 25 43 0 6 5 11 10 11 6 0 10 9 10 20 0
11 4 20 9 20 5 0 21 25 37 55 16 30 32 55 37 55 4 0 7 7 7 15 0 8 5 15 10 15
6 0 10 9 10 20 0 11 3 20 8 20 4 0 25 35 47 78 22 42 42 79 45 82 11 11 60
121 60 135 0 8 5 15 10 15 6 0 10 8 10 18 0 10 4 22 9 28 15 16 61 149 61 176
0 14 5 28 11 30 6 2 10 44 11 108 1 116 -15 165 -77 245 -34 44 -124 135 -163
165 -15 11 -47 36 -72 55 -25 19 -51 35 -57 35 -7 0 -13 4 -13 8 0 5 -24 22
-52 37 -29 16 -55 31 -58 34 -3 3 -18 13 -35 21 -16 8 -32 17 -35 20 -3 3 -24
14 -47 24 -24 11 -43 23 -43 28 0 4 -6 8 -14 8 -7 0 -49 20 -92 45 -44 25 -85
45 -91 45 -7 0 -13 5 -13 10 0 6 -9 10 -20 10 -11 0 -20 4 -20 8 0 5 -16 16
-35 25 -32 15 -47 37 -26 37 5 0 12 8 15 18 4 10 22 35 41 56 19 21 35 42 35
45 0 4 8 16 18 27 27 30 112 143 112 149 0 5 15 23 62 78 15 18 28 35 28 40 0
4 13 21 30 38 16 17 32 40 35 50 4 11 8 19 11 19 2 0 30 -17 62 -37z m-3207
-77 c5 -6 9 -27 9 -48 0 -38 20 -90 44 -113 34 -34 50 -35 778 -36 411 0 758
-4 803 -10 44 -5 104 -12 133 -16 29 -3 55 -9 58 -14 3 -5 21 -9 40 -9 19 0
34 -4 34 -10 0 -5 7 -10 16 -10 16 0 134 -49 144 -60 3 -3 23 -18 45 -35 44
-32 115 -105 115 -118 0 -4 9 -17 20 -29 11 -12 20 -30 20 -40 0 -10 3 -18 8
-18 8 0 33 -83 52 -170 13 -59 10 -638 -8 -1581 l-9 -486 -30 -54 c-42 -76
-105 -173 -115 -177 -4 -2 -8 -8 -8 -13 0 -10 -11 -24 -47 -64 -13 -13 -23
-27 -23 -30 0 -11 -209 -215 -221 -215 -12 0 -10 534 7 1690 5 349 3 418 -11
500 -9 52 -19 110 -22 128 -3 18 -9 35 -14 38 -5 3 -9 16 -9 29 0 13 -3 25 -7
27 -5 2 -16 19 -26 39 -32 62 -115 139 -150 139 -10 0 -17 4 -17 9 0 5 -15 12
-32 17 -18 4 -521 10 -1118 13 -597 4 -1079 7 -1072 9 6 1 12 6 12 12 0 5 25
50 55 101 30 50 55 95 55 99 0 5 3 10 8 12 4 2 34 43 66 91 32 49 65 94 72
102 8 7 14 16 14 20 0 3 10 17 23 30 33 36 47 53 47 60 0 3 15 21 33 39 17 19
57 62 87 97 30 34 71 78 90 96 l35 34 3 -33 c2 -18 8 -37 13 -42z m200 -1292
c-6 -114 -11 -488 -11 -831 0 -409 -3 -623 -10 -623 -5 0 -10 -6 -10 -14 0 -8
-15 -40 -33 -73 -17 -32 -38 -70 -46 -85 -8 -16 -18 -28 -23 -28 -4 0 -8 -6
-8 -13 0 -7 -10 -23 -22 -37 -13 -14 -29 -37 -36 -51 -8 -14 -23 -37 -35 -51
-110 -126 -138 -157 -182 -199 -32 -31 -53 -45 -59 -39 -6 6 -5 268 2 717 7
390 12 779 12 866 0 90 4 157 9 157 5 0 12 8 15 18 3 9 19 31 36 49 16 18 30
34 30 37 0 7 34 48 68 82 12 13 22 26 22 29 0 3 10 16 23 29 12 13 40 44 62
70 22 26 73 82 113 124 39 42 72 81 72 86 0 6 5 5 11 -1 7 -7 7 -71 0 -219z
m-546 -2500 c41 -17 65 -37 65 -53 0 -6 5 -11 10 -11 6 0 10 -35 10 -85 0 -50
-4 -85 -10 -85 -5 0 -10 -6 -10 -12 -1 -17 -35 -58 -48 -58 -21 0 -21 -29 0
-36 28 -8 56 -36 74 -69 16 -31 19 -151 4 -160 -5 -3 -10 -15 -10 -26 0 -10
-4 -19 -10 -19 -5 0 -10 -6 -10 -14 0 -8 -24 -26 -53 -41 -49 -23 -63 -25
-158 -23 l-104 3 -3 344 c-2 269 1 346 10 353 24 15 203 9 243 -8z m303 4 c15
-15 15 -61 0 -76 -26 -26 -88 0 -88 36 0 40 61 67 88 40z m202 -103 c0 -93 3
-115 14 -115 8 0 16 5 18 11 2 6 31 13 64 16 103 9 142 -27 173 -160 14 -62
14 -88 -3 -168 -16 -76 -54 -149 -78 -149 -9 0 -18 -6 -21 -12 -5 -18 -184
-17 -214 0 l-23 13 0 339 0 340 35 0 35 0 0 -115z m460 -196 c0 -343 0 -344
59 -333 29 6 31 5 31 -24 0 -34 -13 -42 -74 -42 -28 0 -51 7 -64 19 -22 18
-22 23 -22 355 l0 336 35 0 35 0 0 -311z m900 276 l0 -35 -115 0 -115 0 0
-125 0 -125 110 0 110 0 0 -35 0 -35 -110 0 -110 0 0 -160 0 -160 -40 0 -40 0
0 355 0 355 155 0 155 0 0 -35z m-1560 -420 l0 -255 -35 0 -35 0 0 255 0 255
35 0 35 0 0 -255z m1060 238 c38 -26 50 -40 50 -57 0 -8 5 -18 10 -21 6 -3 10
-42 10 -85 l0 -79 -132 -3 -133 -3 3 -35 c1 -19 13 -55 25 -79 29 -58 77 -78
149 -60 26 6 52 8 58 4 17 -11 11 -39 -11 -53 -26 -17 -116 -27 -161 -18 -83
15 -138 114 -138 249 0 89 26 174 67 215 43 44 156 57 203 25z m874 -18 c15
-17 26 -43 27 -60 0 -16 2 -117 2 -223 l2 -193 -25 3 c-17 2 -26 10 -28 26 -3
20 -32 33 -32 14 0 -17 -60 -42 -100 -42 -53 0 -110 26 -110 51 0 10 -4 21
-10 24 -14 9 -12 111 3 138 18 32 59 67 80 67 9 0 17 5 17 10 0 6 28 10 64 10
74 0 81 8 70 78 -6 38 -11 46 -41 59 -28 11 -45 12 -85 4 -65 -14 -78 -14 -78
3 0 8 -6 16 -12 19 -18 6 -6 17 39 33 24 9 67 13 115 12 71 -3 78 -5 102 -33z
m216 9 l10 -25 25 25 c20 20 36 26 70 26 45 0 45 0 45 -36 0 -35 -1 -36 -31
-30 -17 3 -40 1 -52 -6 -51 -27 -52 -29 -55 -240 l-4 -198 -34 0 -34 0 0 255
0 255 25 0 c18 0 28 -7 35 -26z m288 -1 c3 -21 22 -34 22 -15 0 16 71 42 115
42 36 0 51 -6 77 -30 l31 -30 25 25 c31 31 59 39 122 33 49 -5 80 -25 80 -52
0 -8 5 -18 10 -21 6 -4 10 -88 10 -221 l0 -214 -35 0 -35 0 0 188 c0 204 -6
234 -52 253 -20 8 -32 8 -49 -2 -64 -34 -69 -53 -69 -258 l0 -181 -35 0 -35 0
-1 183 c-1 100 -4 193 -8 206 -3 13 -19 33 -34 44 -26 20 -28 20 -62 4 -19 -9
-35 -23 -35 -31 0 -8 -6 -16 -12 -18 -10 -4 -14 -54 -16 -196 l-4 -192 -34 0
-34 0 0 256 0 255 28 -3 c19 -2 28 -9 30 -25z m1037 10 c19 -9 37 -25 41 -35
3 -10 10 -18 15 -18 5 0 9 -11 9 -24 0 -13 5 -26 10 -28 7 -2 11 -52 11 -133
0 -81 -4 -131 -11 -133 -5 -2 -10 -12 -10 -22 0 -24 -65 -88 -97 -96 -48 -12
-139 2 -167 27 -32 28 -56 73 -56 106 0 12 -4 23 -10 23 -6 0 -10 36 -10 89 0
50 5 93 10 96 6 3 10 17 10 31 0 41 58 117 96 127 44 11 125 6 159 -10z m249
11 c9 -3 16 -15 16 -25 0 -25 4 -24 34 6 19 18 36 25 66 25 39 0 40 -1 40 -36
0 -35 -1 -36 -30 -30 -41 8 -74 -10 -94 -50 -13 -28 -16 -69 -16 -214 l0 -180
-35 0 -35 0 0 255 c0 245 1 255 19 255 11 0 26 -3 35 -6z m519 -5 l37 -10 0
-299 c0 -193 -4 -300 -10 -300 -5 0 -10 -8 -10 -18 0 -16 -17 -31 -69 -59 -45
-25 -211 -9 -211 20 0 4 4 16 10 26 8 16 19 18 80 13 74 -5 120 8 120 35 0 7
5 13 10 13 6 0 10 25 10 55 0 30 -2 55 -4 55 -2 0 -17 -7 -32 -15 -38 -19
-107 -19 -149 1 -32 15 -47 40 -74 125 -30 96 -1 271 55 327 39 39 155 54 237
31z m-1123 -428 c16 -40 -3 -71 -46 -71 -42 0 -64 38 -44 75 20 38 73 35 90
-4z"/>
<path d="M450 1116 l0 -126 53 0 c64 0 127 37 127 74 0 9 5 16 10 16 6 0 10
20 10 45 0 25 -4 45 -10 45 -5 0 -10 7 -10 16 0 33 -31 49 -107 52 l-73 4 0
-126z"/>
<path d="M450 796 l0 -125 45 -7 c73 -10 133 22 163 89 16 38 15 50 -9 102
-14 29 -28 45 -40 45 -10 0 -21 5 -24 10 -3 6 -35 10 -71 10 l-64 0 0 -124z"/>
<path d="M1198 1037 c-48 -19 -59 -60 -56 -214 l3 -138 39 -13 c73 -24 130 21
148 116 20 108 -8 228 -59 251 -28 13 -39 13 -75 -2z"/>
<path d="M1864 1031 c-29 -17 -54 -63 -54 -97 0 -11 22 -14 95 -14 l95 0 0 35
c0 19 -4 35 -10 35 -5 0 -10 9 -10 19 0 12 -11 23 -31 30 -43 15 -49 14 -85
-8z"/>
<path d="M2725 820 c-3 -5 -14 -10 -24 -10 -33 0 -53 -78 -28 -111 33 -43 93
-47 136 -10 17 15 21 30 21 80 l0 61 -49 0 c-28 0 -53 -4 -56 -10z"/>
<path d="M4304 1043 c-12 -2 -34 -18 -50 -35 -27 -31 -28 -34 -28 -153 0 -115
2 -123 25 -148 33 -35 72 -49 105 -37 32 13 54 34 54 54 0 8 5 18 10 21 6 3
10 52 10 111 0 63 -4 104 -10 104 -5 0 -10 9 -10 21 0 11 -6 26 -12 32 -12 11
-66 39 -71 36 -1 -1 -12 -4 -23 -6z"/>
<path d="M5032 1034 c-64 -28 -95 -149 -69 -261 16 -65 26 -81 66 -103 32 -17
101 4 101 32 0 10 5 18 10 18 6 0 10 58 10 155 l0 154 -37 10 c-45 13 -39 13
-81 -5z"/>
</g>
</svg>
