<?xml version="1.0" standalone="no"?>
<!DOCTYPE svg PUBLIC "-//W3C//DTD SVG 20010904//EN"
 "http://www.w3.org/TR/2001/REC-SVG-20010904/DTD/svg10.dtd">
<svg version="1.0" xmlns="http://www.w3.org/2000/svg"
 width="310.000000pt" height="310.000000pt" viewBox="0 0 310.000000 310.000000"
 preserveAspectRatio="xMidYMid meet">
<metadata>
Created by potrace 1.11, written by Peter Selinger 2001-2013
</metadata>
<g transform="translate(0.000000,310.000000) scale(0.100000,-0.100000)"
fill="#000000" stroke="none">
<path d="M0 1550 l0 -1550 1550 0 1550 0 0 1550 0 1550 -1550 0 -1550 0 0
-1550z m2704 1070 c91 -81 158 -162 193 -230 24 -48 28 -66 28 -145 0 -145
-47 -241 -251 -516 l-123 -165 -101 -31 c-55 -17 -100 -29 -100 -26 0 3 30 53
67 111 136 215 223 416 223 514 -1 117 -129 233 -433 393 -88 46 -125 71 -119
79 5 6 58 75 117 153 l108 142 161 -109 c88 -60 192 -137 230 -170z m-2160
121 c17 -18 41 -20 479 -24 387 -3 472 -7 525 -20 136 -36 224 -104 264 -205
19 -50 22 -79 26 -247 2 -104 -1 -375 -6 -602 l-9 -411 -49 -79 c-42 -67 -201
-249 -210 -240 -2 2 1 264 6 583 9 608 5 701 -31 784 -26 58 -54 88 -104 111
-37 17 -78 19 -652 19 -337 0 -613 4 -613 8 0 12 104 177 151 240 22 29 72 89
112 134 l72 81 11 -57 c6 -31 19 -65 28 -75z m81 -1003 l-7 -473 -31 -55 c-43
-78 -117 -177 -177 -235 l-51 -50 3 491 3 491 38 49 c50 65 217 254 224 254 3
0 2 -213 -2 -472z m-275 -1003 c50 -26 62 -103 23 -147 -14 -16 -13 -20 11
-48 43 -52 31 -137 -25 -166 -18 -9 -58 -14 -109 -14 l-80 0 0 195 0 195 75 0
c48 0 87 -6 105 -15z m160 -10 c0 -18 -5 -25 -20 -25 -15 0 -20 7 -20 25 0 18
5 25 20 25 15 0 20 -7 20 -25z m100 -40 l0 -64 28 16 c108 62 183 -158 87
-254 -37 -37 -69 -42 -98 -15 -15 12 -21 14 -24 5 -3 -7 -11 -13 -19 -13 -12
0 -14 33 -14 195 0 188 1 195 20 195 18 0 20 -7 20 -65z m250 -130 c0 -188 -1
-195 -20 -195 -19 0 -20 7 -20 195 0 188 1 195 20 195 19 0 20 -7 20 -195z
m530 175 c0 -18 -7 -20 -85 -20 l-85 0 0 -65 0 -65 75 0 c68 0 75 -2 75 -20 0
-18 -7 -20 -75 -20 l-75 0 0 -90 c0 -83 -1 -90 -20 -90 -19 0 -20 7 -20 195
l0 195 105 0 c98 0 105 -1 105 -20z m-321 -106 c28 -23 51 -75 51 -116 0 -16
-11 -18 -85 -18 -83 0 -85 -1 -85 -24 0 -31 36 -76 62 -76 25 0 58 27 58 47 0
20 34 12 38 -10 2 -9 -10 -31 -26 -47 -41 -41 -89 -41 -134 -1 -30 26 -33 35
-36 100 -5 80 8 121 46 151 34 27 75 25 111 -6z m514 15 c33 -18 37 -28 37
-114 1 -44 5 -99 9 -122 8 -41 7 -43 -15 -43 -15 0 -24 6 -24 15 0 12 -6 11
-32 -5 -67 -41 -128 -13 -128 58 0 55 21 79 83 92 76 15 82 21 66 56 -20 41
-69 45 -97 9 -23 -29 -53 -25 -45 6 13 49 94 75 146 48z m215 2 c24 -15 10
-44 -21 -45 -16 -1 -32 -8 -37 -16 -6 -8 -10 -61 -10 -117 0 -96 -1 -103 -20
-103 -19 0 -20 7 -20 140 0 118 2 140 15 140 8 0 15 -8 15 -17 0 -14 3 -13 20
5 22 24 37 27 58 13z m193 -12 l21 -21 22 21 c31 29 70 27 95 -5 19 -24 21
-40 21 -145 0 -112 -1 -119 -20 -119 -19 0 -20 7 -20 113 0 115 -6 137 -40
137 -9 0 -25 -9 -36 -21 -15 -17 -19 -40 -22 -125 -3 -76 -8 -104 -17 -104 -9
0 -14 29 -17 109 -3 113 -13 141 -49 141 -36 0 -49 -38 -49 -147 0 -96 -1
-103 -20 -103 -19 0 -20 7 -20 140 0 118 2 140 15 140 8 0 15 -7 15 -16 0 -13
5 -12 26 5 34 27 68 27 95 0z m478 6 c55 -28 77 -135 45 -215 -42 -106 -168
-86 -193 30 -29 134 52 235 148 185z m219 6 c24 -15 10 -44 -21 -45 -16 -1
-32 -8 -37 -16 -6 -8 -10 -61 -10 -117 0 -96 -1 -103 -20 -103 -19 0 -20 7
-20 140 0 118 2 140 15 140 8 0 15 -8 15 -17 0 -14 3 -13 20 5 22 24 37 27 58
13z m170 -7 c12 -8 22 -10 22 -5 0 6 9 11 20 11 19 0 20 -7 20 -127 -1 -161
-10 -211 -45 -240 -44 -38 -122 -25 -144 24 -22 49 -5 59 31 18 21 -25 61 -33
85 -17 13 8 33 55 33 78 0 13 -3 13 -22 0 -42 -29 -93 -14 -123 37 -37 63 -18
197 32 226 26 15 65 13 91 -5z m-2348 -134 c0 -133 -1 -140 -20 -140 -19 0
-20 7 -20 140 0 133 1 140 20 140 19 0 20 -7 20 -140z m1760 -115 c0 -20 -5
-25 -25 -25 -20 0 -25 5 -25 25 0 20 5 25 25 25 20 0 25 -5 25 -25z"/>
<path d="M210 645 l0 -65 53 0 c68 0 89 15 89 65 0 50 -21 65 -89 65 l-53 0 0
-65z"/>
<path d="M210 470 l0 -70 60 0 c77 0 105 23 96 79 -7 48 -28 61 -98 61 l-58 0
0 -70z"/>
<path d="M632 592 c-43 -43 -34 -172 12 -193 35 -16 63 4 77 53 27 103 -32
197 -89 140z"/>
<path d="M972 587 c-40 -43 -30 -57 42 -57 62 0 63 0 58 25 -5 27 -36 55 -62
55 -9 0 -26 -10 -38 -23z"/>
<path d="M1525 481 c-39 -12 -51 -21 -53 -39 -7 -45 42 -68 82 -39 17 13 39
84 27 91 -3 2 -28 -4 -56 -13z"/>
<path d="M2382 589 c-37 -39 -37 -139 0 -178 38 -41 91 -14 104 53 19 103 -49
185 -104 125z"/>
<path d="M2781 591 c-46 -46 -31 -167 22 -185 23 -8 31 -6 50 12 30 31 32 139
3 171 -24 26 -50 27 -75 2z"/>
</g>
</svg>
