<?xml version="1.0" standalone="no"?>
<!DOCTYPE svg PUBLIC "-//W3C//DTD SVG 1.1//EN" "http://www.w3.org/Graphics/SVG/1.1/DTD/svg11.dtd" >
<svg xmlns="http://www.w3.org/2000/svg" xmlns:xlink="http://www.w3.org/1999/xlink" version="1.1">
<metadata></metadata>
<defs>
<font id="semitic_modernsemitic_modern" horiz-adv-x="312" >
<font-face units-per-em="2048" ascent="1638" descent="-410" />
<missing-glyph horiz-adv-x="500" />
<glyph />
<glyph />
<glyph unicode="&#xd;" />
<glyph unicode=" " />
<glyph unicode="!" />
<glyph unicode="&#x22;" />
<glyph unicode="#" />
<glyph unicode="$" />
<glyph unicode="%" />
<glyph unicode="&#x26;" />
<glyph unicode="'" />
<glyph unicode="(" />
<glyph unicode=")" />
<glyph unicode="*" />
<glyph unicode="+" />
<glyph unicode="," />
<glyph unicode="-" />
<glyph unicode="." horiz-adv-x="545" d="M151 561v230h244v-230h-244z" />
<glyph unicode="/" />
<glyph unicode="0" horiz-adv-x="1257" d="M151 723q0 260 53.5 418.5t159 244.5t265.5 86q118 0 207 -47.5t147 -137t91 -218t33 -346.5q0 -258 -53 -416.5t-158.5 -245t-266.5 -86.5q-212 0 -333 152q-145 183 -145 596zM336 723q0 -361 84.5 -480.5t208.5 -119.5t208.5 120t84.5 480q0 362 -84.5 481t-210.5 119 q-124 0 -198 -105q-93 -134 -93 -495z" />
<glyph unicode="1" horiz-adv-x="839" d="M146 930v174q151 71 264 172t160 196h116v-1472h-180v1147q-65 -62 -170.5 -124t-189.5 -93z" />
<glyph unicode="2" horiz-adv-x="1259" d="M144 0q0 65 21 125q33 94 119 195q81 95 235 222q238 195 323 310q84 115 84 217q0 107 -76.5 180.5t-199.5 73.5q-130 0 -208.5 -78t-78.5 -216l-185 19q0 207 133.5 315.5t342.5 108.5q211 0 334 -117t123 -290q0 -88 -36 -173t-119.5 -179t-277.5 -258 q-162 -136 -208 -184.5t-76 -97.5h719v-173h-969z" />
<glyph unicode="3" horiz-adv-x="1255" d="M147 387l180 24q31 -153 105.5 -220.5t181.5 -67.5q127 0 214.5 88t87.5 218q0 124 -81 204.5t-206 80.5q-51 0 -127 -20l20 158q18 -2 29 -2q115 0 207 60t92 185q0 99 -67 164t-173 65q-105 0 -175 -66t-90 -198l-180 32q33 181 150 280.5t291 99.5q120 0 221 -51.5 t154.5 -140.5t53.5 -189q0 -95 -51 -173t-151 -124q130 -30 202 -124.5t72 -236.5q0 -192 -140 -325.5t-354 -133.5q-193 0 -329.5 115t-136.5 298z" />
<glyph unicode="4" horiz-adv-x="1312" d="M150 351v165l669 950h147v-950h198v-165h-198v-351h-180v351h-636zM327 516h459v661z" />
<glyph unicode="5" horiz-adv-x="1268" d="M148 400h189q21 -138 97.5 -207.5t184.5 -69.5q130 0 220 98t90 260q0 154 -86.5 243t-226.5 89q-87 0 -157 -39.5t-110 -102.5l-169 22l142 753h729v-172h-585l-79 -394q132 92 277 92q192 0 324 -133t132 -342q0 -199 -116 -344q-141 -178 -385 -178q-200 0 -335.5 120 t-135.5 305z" />
<glyph unicode="6" horiz-adv-x="1267" d="M151 686q0 425 157 618q137 168 369 168q173 0 283.5 -97t132.5 -268h-179q-24 106 -68 140q-100 77 -180 77q-86 0 -151 -48q-85 -62 -135 -181t-50 -339q65 99 159 147t197 48q180 0 306.5 -132.5t126.5 -342.5q0 -138 -59.5 -256.5t-163.5 -181.5t-236 -63 q-225 0 -367 165.5t-142 545.5zM358 475q0 -93 39.5 -178t110.5 -129.5t149 -44.5q114 0 196 92t82 250q0 152 -81 239.5t-204 87.5q-122 0 -207 -87.5t-85 -229.5z" />
<glyph unicode="7" horiz-adv-x="1236" d="M144 1274v173h949v-140q-140 -149 -278 -396q-67 -121 -212 -508q-69 -184 -69 -403h-185q0 173 66.5 418t188 472.5t258.5 383.5h-718z" />
<glyph unicode="8" horiz-adv-x="1264" d="M150 424q0 143 72.5 239.5t206.5 131.5q-112 41 -166 117t-54 182q0 160 115 269t306 109q192 0 309 -111.5t117 -271.5q0 -102 -53.5 -177.5t-162.5 -116.5q135 -44 205.5 -142t70.5 -234q0 -188 -133 -316t-350 -128t-350 128.5t-133 320.5zM335 423q0 -77 36.5 -149 t108.5 -111.5t155 -39.5q129 0 213 83t84 211q0 130 -86.5 215t-216.5 85q-127 0 -210.5 -84t-83.5 -210zM393 1100q0 -104 67 -170t174 -66q104 0 170.5 65.5t66.5 160.5q0 99 -68.5 166.5t-170.5 67.5q-103 0 -171 -66t-68 -158z" />
<glyph unicode="9" horiz-adv-x="1261" d="M147 977q0 223 131.5 359t329.5 136q143 0 261.5 -77t180 -219.5t61.5 -412.5q0 -281 -61 -447.5t-181.5 -253.5t-282.5 -87q-172 0 -281 103.5t-131 276.5h173q22 -122 84 -177t159 -55q83 0 145.5 38t102.5 101q40 65 67 172q28 114 28 175v15q-1 15 -1.5 30t-0.5 36 q-54 -86 -147.5 -139.5t-202.5 -53.5q-182 0 -308 132t-126 348zM332 971q0 -140 84.5 -227.5t208.5 -87.5q125 0 205.5 87.5t80.5 242.5t-82.5 246t-198.5 91q-120 0 -209 -98t-89 -254z" />
<glyph unicode=":" />
<glyph unicode=";" />
<glyph unicode="&#x3c;" />
<glyph unicode="=" />
<glyph unicode="&#x3e;" />
<glyph unicode="?" />
<glyph unicode="@" />
<glyph unicode="A" horiz-adv-x="1345" d="M137 0l12 51q131 14 131 88q0 33 -59.5 147t-59.5 178q0 170 194 369q-130 130 -153 163q-57 83 -57 204q0 86 58 168q53 75 97 75q17 0 17 -20q0 -12 -14 -33t-14 -31q0 -58 139 -197l329 -328l143 180q-69 56 -90 88q-26 41 -26 107q0 94 66 169q57 65 102 65 q18 0 18 -15q0 -5 -5 -12t-5 -17q0 -41 61 -92q94 -76 115 -101q61 -75 61 -174q0 -90 -37 -146q-33 -50 -80 -50q-20 0 -43 39q-34 57 -81 96l-151 -187l263 -265q78 -79 109 -132q41 -72 41 -163q0 -99 -61 -183q-53 -74 -94 -74q-19 0 -19 26q0 6 13 27.5t13 35.5 q0 57 -79 136l-590 589q-56 -79 -56 -147q0 -76 123 -233t123 -237q0 -72 -54.5 -118t-135.5 -46h-264z" />
<glyph unicode="B" horiz-adv-x="1500" d="M113 0l164 340h860v568q0 110 -162 110h-622q-79 0 -110 37q-40 47 -40 184q0 204 54 204q12 0 32 -43t78 -43h588q272 0 272 -290v-727h164l-178 -340h-1100z" />
<glyph unicode="C" horiz-adv-x="872" d="M117 0l85 340h405l-113 -340h-377zM178 1247q0 196 53 196q12 0 33 -42.5t71 -42.5h73q267 0 267 -301q0 -40 -10 -100t-10 -120q0 -72 45 -279t45 -326q0 -232 -28 -232q-22 0 -22 20q0 22 -60 224q-60 203 -60 270v10q1 12 1 22q0 120 12 200q0 125 12 163q5 16 5 29 q0 80 -173 80h-121q-69 0 -99 46q-34 52 -34 183z" />
<glyph unicode="D" horiz-adv-x="1448" d="M138 1238q0 205 56 205q8 0 31 -42.5t71 -42.5h880q59 0 97.5 -46t38.5 -122q0 -80 -44 -130q-38 -42 -80 -42v-844q0 -34 -34.5 -104t-55.5 -70q-31 0 -31 27q0 11 5 25q38 113 38 966h-826q-79 0 -110 41q-36 48 -36 179z" />
<glyph unicode="E" horiz-adv-x="1449" d="M139 1238q0 205 56 205q8 0 31 -42.5t71 -42.5h880q59 0 97.5 -46t38.5 -122q0 -82 -45 -130q-40 -42 -94 -42v-844q0 -34 -27 -104t-48 -70q-28 0 -28 32q0 9 2 20q21 113 21 966h-809q-79 0 -110 41q-36 48 -36 179zM150 41q0 27 21 61q24 38 33 63q18 49 18 100v15 q-1 45 -1 122q0 75 -6 117q-1 7 -1 17q0 43 39 120q36 71 69 71q26 0 26 -18q0 -6 -9 -40t-9 -66q0 -29 16.5 -108t16.5 -172q0 -180 -21 -222q-11 -22 -70 -61.5t-83 -39.5q-39 0 -39 41z" />
<glyph unicode="F" horiz-adv-x="760" d="M133 1240q0 203 52 203q12 0 33 -42.5t75 -42.5h129q99 0 150 -84q43 -72 43 -184v-926q0 -26 -54.5 -95t-73.5 -69q-43 0 -43 16q0 11 21 30q34 30 34 389q0 361 34 459q9 26 9 46q0 78 -127 78h-148q-68 0 -98 42q-36 51 -36 180z" />
<glyph unicode="G" horiz-adv-x="1327" d="M114 0l50 349l288 46q12 28 12 43q0 45 -82 199.5t-82 236.5q0 79 40 138q-72 22 -98 58q-31 43 -31 143q0 101 36 168q27 51 48 51q18 0 18 -20q0 -5 -2.5 -12t-2.5 -11q0 -15 111 -46q127 -35 157 -58q50 -38 50 -140q0 -66 -27.5 -143.5t-47.5 -77.5q-21 0 -21 17v14 q0 11 -26 16l-111 20q-15 -33 -15 -61q0 -55 85 -196.5t85 -213.5q0 -70 -31 -108l199 24q103 12 149 50q42 35 76 129l33 90q41 113 75 174q23 42 23 43q0 19 -45 37l-82 28q-120 42 -149 75q-36 41 -36 160q0 87 40 155q34 55 59 55q17 0 17 -18q0 -5 -2 -13t-2 -13 q0 -24 139 -72q185 -64 185 -176q0 -69 -45 -183q-69 -176 -71 -181q-38 -125 -65 -356q-32 -175 -103.5 -238t-274.5 -96z" />
<glyph unicode="H" horiz-adv-x="1450" d="M140 1238q0 205 56 205q8 0 30 -43t80 -43h874q66 0 102 -54q32 -46 32 -114q0 -76 -39.5 -124t-98.5 -48v-857q0 -20 -29 -90t-45 -70q-13 0 -17 4q-15 14 -12 44q1 9 1 22q22 286 22 948h-718q-76 -70 -76 -212q0 -15 31 -199t31 -293q0 -170 -26 -222q-8 -16 -67 -54 t-77 -38q-42 0 -42 42q0 8 23 80q26 82 26 140q0 12 -1 22q-2 20 -2 44q-8 47 -8 176q-2 32 -2 176q0 207 107 338q-80 0 -111 33q-44 48 -44 187z" />
<glyph unicode="I" horiz-adv-x="764" d="M139 1234q0 209 57 209q8 0 32 -43t69 -43h67q263 0 263 -301q0 -140 -19 -250q-17 -101 -39 -121q-8 -7 -24 -7q-25 0 -25 31q0 18 11.5 82t11.5 104q0 123 -156 123h-118q-130 0 -130 216z" />
<glyph unicode="J" horiz-adv-x="328" />
<glyph unicode="K" horiz-adv-x="1448" d="M138 1242q0 201 58 201q5 0 27.5 -42.5t76.5 -42.5h874q67 0 105 -52q33 -47 33 -116q0 -77 -43 -128q-37 -44 -81 -44v-1506q0 -35 -37 -101.5t-54 -66.5q-28 0 -28 36q0 11 3 28q38 215 38 1610h-820q-81 0 -112 37q-40 47 -40 187z" />
<glyph unicode="L" horiz-adv-x="1396" d="M137 1196v371q0 99 41 179q27 52 76 103q41 41 41 48q0 27 -79 56.5t-79 65.5q0 55 32 108q28 46 45 46q18 0 18 -7q0 -5 -2.5 -11t-2.5 -9q0 -8 44 -23q55 -20 82 -41q44 -34 44 -88q0 -33 -25 -71q-35 -52 -48 -90q-25 -75 -25 -196v-198q0 -47 18 -64t64 -17h676 q116 0 153 -79q8 -18 32 -162q28 -168 28 -324q0 -202 -143 -328l-134 -110q-93 -78 -135 -134q-10 -14 -96 -166q-42 -75 -97 -75q-40 0 -67 31.5t-27 74.5q0 97 114 197q103 89 250 143q123 45 208 150q41 51 41 160q0 139 -64 215q-55 65 -134 65h-648q-98 0 -144 34 q-57 42 -57 146z" />
<glyph unicode="M" horiz-adv-x="1409" d="M149 1248q0 195 56 195q10 0 30 -42.5t70 -42.5h689q124 0 194 -71q73 -74 73 -212v-1075h-1104v719q0 162 119 299q-68 0 -97.5 52.5t-29.5 177.5zM274 340h872v570q0 108 -131 108h-626q-115 -123 -115 -252v-426z" />
<glyph unicode="N" horiz-adv-x="719" d="M132 1215q0 97 36 164q27 53 47 53q19 0 19 -20q0 -4 -2 -11t-2 -11q0 -10 136.5 -43.5t161.5 -51.5q58 -44 58 -183q0 -52 -71 -211q-66 -148 -66 -224v-1167q1 -33 1 -102q0 -63 -67 -63q-26 0 -26 43v1264q0 102 42 194t42 96q0 26 -44 40q-1 0 -89 19 q-104 23 -138 60q-38 43 -38 154z" />
<glyph unicode="O" horiz-adv-x="1327" d="M114 0l50 349l288 46q12 28 12 43q0 45 -82 199.5t-82 236.5q0 79 40 138q-72 22 -98 58q-31 43 -31 143q0 101 36 168q27 51 48 51q18 0 18 -20q0 -5 -2.5 -12t-2.5 -11q0 -15 111 -46q127 -35 157 -58q50 -38 50 -140q0 -66 -27.5 -143.5t-47.5 -77.5q-21 0 -21 17v14 q0 11 -26 16l-111 20q-15 -33 -15 -61q0 -55 85 -196.5t85 -213.5q0 -70 -31 -108l199 24q103 12 149 50q42 35 76 129l33 90q41 113 75 174q23 42 23 43q0 19 -45 37l-82 28q-120 42 -149 75q-36 41 -36 160q0 87 40 155q34 55 59 55q17 0 17 -18q0 -5 -2 -13t-2 -13 q0 -24 139 -72q185 -64 185 -176q0 -69 -45 -183q-69 -176 -71 -181q-38 -125 -65 -356q-32 -175 -103.5 -238t-274.5 -96z" />
<glyph unicode="P" horiz-adv-x="1365" d="M139 487q0 16 13.5 73.5t13.5 111.5q0 27 -6 70t-6 70q0 109 135 206q-70 0 -99 44q-34 51 -34 186q0 195 57 195q7 0 29.5 -42.5t69.5 -42.5h639q134 0 203 -82q63 -75 63 -200v-1566q0 -28 -55 -96.5t-71 -68.5q-36 0 -26 44q35 156 35 768q0 614 35 745q4 15 4 29 q0 87 -176 87h-599q-94 -89 -94 -136q0 -44 97 -44h181q57 0 97.5 -42.5t40.5 -101.5q0 -58 -38 -98.5t-94 -40.5h-274q-49 0 -85 -43t-40 -43q-16 0 -16 18z" />
<glyph unicode="Q" horiz-adv-x="1354" d="M134 500q0 64 94 202q61 90 108 90q17 0 17 -33q-2 0 -40 -71q-40 -76 -40 -160q0 -181 37 -468.5t37 -377.5q0 -164 -30 -310q-34 -166 -90 -166q-77 0 -77 43q0 26 15 46q8 10 11 161q4 183 4 228v13q-1 22 -1 34q-12 144 -12 394q0 322 -12 330q-21 14 -21 45z M165 1247q0 196 57 196q8 0 29 -42.5t69 -42.5h591q171 0 245 -138.5t74 -451.5q0 -270 -90 -380q-56 -68 -253 -150q-55 -21 -111 -41q-85 -34 -152 -78q-23 -15 -86 -78q-41 -41 -66 -41q-43 0 -43 62q0 111 72 189q101 109 371 183q172 47 221 90q71 62 71 219 q0 129 -66 204q-62 71 -159 71h-642q-67 0 -96 42q-36 53 -36 187z" />
<glyph unicode="R" horiz-adv-x="1394" d="M138 1256q0 187 55 187q10 0 31.5 -42.5t70.5 -42.5h689q174 0 232 -126q35 -76 35 -248v-818q0 -26 -56 -96t-72 -70q42 0 42 44v779q2 50 2 78q0 117 -173 117h-723q-75 0 -104 53.5t-29 184.5z" />
<glyph unicode="S" horiz-adv-x="1551" d="M143 1229q0 97 41 162q33 52 57 52q18 0 18 -20q0 -5 -3.5 -11.5t-3.5 -9.5q0 -17 86 -52q114 -46 133 -64q36 -34 36 -133q0 -86 -43 -171q-37 -73 -55 -73q-12 0 -12 16q0 4 2 10t2 10q0 13 -31 24l-97 35q-48 -100 -48 -210q0 -92 55 -250q46 -131 88 -204h21 q196 317 296 682q-61 39 -77 93q-11 33 -11 125q0 80 39 146q34 57 60 57q18 0 18 -18q0 -5 -2 -12t-2 -12q0 -18 102 -60q93 -38 108 -52q42 -38 42 -137q0 -84 -43 -169q-37 -74 -56 -74q-12 0 -12 16q0 3 2 8t2 9q0 16 -21 23l-83 28q-39 -152 -125 -359 q-79 -189 -141 -294h531q29 69 185 342q113 197 113 284q0 21 -22 29l-80 20q-89 22 -120 62q-34 44 -34 153q0 95 42 161q33 52 55 52q20 0 20 -19q0 -5 -3.5 -11.5t-3.5 -11.5q0 -19 94 -55q91 -35 111 -54q43 -41 43 -142q0 -192 -125 -502q-102 -244 -203 -489 q-16 -41 -50 -159h-734q0 127 -81 373q-66 200 -66 352q0 167 65 302q-55 45 -69 89q-10 29 -10 113z" />
<glyph unicode="T" horiz-adv-x="1426" d="M116 0l59 340h153q-30 38 -55 112q-28 84 -28 159q0 198 115 407q-93 0 -124 41q-37 47 -37 197q0 187 56 187q7 0 30.5 -42.5t70.5 -42.5h661q110 0 189 -78q72 -71 72 -185v-925q0 -30 -13.5 -100t-29.5 -70q-20 0 -20 40v862q0 116 -182 116h-600q-92 -168 -92 -322 q0 -82 97 -231t97 -214q0 -109 -42 -180t-109 -71h-268z" />
<glyph unicode="U" horiz-adv-x="1404" d="M146 1235q0 87 41 153q34 55 57 55q22 0 22 -20q0 -6 -3 -12t-3 -10q0 -9 118 -54q104 -39 135 -70q39 -37 39 -116q0 -101 -44 -185q-35 -68 -54 -68q-11 0 -11 13q0 3 1.5 10t1.5 10q0 10 -56 33q-22 9 -60 25q-88 -150 -88 -262q0 -71 31 -191l52 -207h803 q76 216 76 338q0 147 -75 242q-79 101 -211 101q-97 0 -153.5 -70t-56.5 -187q0 -9 3 -33.5t3 -44.5q0 -60 -40 -60q-58 0 -58 136q0 65 52 230t52 252q0 21 -4 54t-4 50q0 29 10 35.5t44 6.5q157 0 297 -90q223 -142 223 -456q0 -184 -45 -406q-17 -85 -105 -437h-940 q0 123 -26 376q-20 195 -20 271q0 209 122 378q-73 34 -99.5 77.5t-26.5 132.5z" />
<glyph unicode="V" horiz-adv-x="328" />
<glyph unicode="W" horiz-adv-x="1551" d="M143 1229q0 97 41 162q33 52 57 52q18 0 18 -20q0 -5 -3.5 -11.5t-3.5 -9.5q0 -17 86 -52q114 -46 133 -64q36 -34 36 -133q0 -86 -43 -171q-37 -73 -55 -73q-12 0 -12 16q0 4 2 10t2 10q0 13 -31 24l-97 35q-48 -100 -48 -210q0 -92 55 -250q46 -131 88 -204h21 q196 317 296 682q-61 39 -77 93q-11 33 -11 125q0 80 39 146q34 57 60 57q18 0 18 -18q0 -5 -2 -12t-2 -12q0 -18 102 -60q93 -38 108 -52q42 -38 42 -137q0 -84 -43 -169q-37 -74 -56 -74q-12 0 -12 16q0 3 2 8t2 9q0 16 -21 23l-83 28q-39 -152 -125 -359 q-79 -189 -141 -294h531q29 69 185 342q113 197 113 284q0 21 -22 29l-80 20q-89 22 -120 62q-34 44 -34 153q0 95 42 161q33 52 55 52q20 0 20 -19q0 -5 -3.5 -11.5t-3.5 -11.5q0 -19 94 -55q91 -35 111 -54q43 -41 43 -142q0 -192 -125 -502q-102 -244 -203 -489 q-16 -41 -50 -159h-734q0 127 -81 373q-66 200 -66 352q0 167 65 302q-55 45 -69 89q-10 29 -10 113zM267 1655.5q0 63.5 120 88.5q96 -38 96 -88.5t-42 -89t-66 -38.5t-66 32t-42 95.5z" />
<glyph unicode="X" horiz-adv-x="1349" d="M139 1257q0 186 55 186q9 0 30.5 -42.5t73.5 -42.5h490q146 0 252 -93q191 -166 191 -586q0 -331 -141 -515q-146 -192 -423 -192q-241 0 -370 161q-123 153 -123 423q0 320 152 462q-111 0 -143 32q-44 45 -44 207zM240 690q0 -155 95.5 -263t238.5 -108h216 q156 0 265 101q113 103 113 260q0 152 -57 229q-80 109 -284 109h-423q-164 -153 -164 -328z" />
<glyph unicode="Y" horiz-adv-x="1258" d="M132 1219q0 89 34 156q28 57 50 57q20 0 20 -20q0 -5 -3 -11.5t-3 -11.5q0 -12 128 -41q142 -32 174 -58q54 -43 54 -178q0 -53 -71 -211q-66 -147 -66 -226v-257q166 362 396 578q-81 51 -102 71q-40 37 -40 86q0 83 58 193q54 104 85 104q20 0 20 -18q0 -5 -4.5 -13 t-4.5 -14q0 -18 100 -73q95 -52 114 -68q53 -43 53 -105q0 -86 -50 -198q-46 -103 -68 -103q-18 0 -18 14q0 5 1 11.5t1 9.5q0 17 -32 37l-38 24q-123 -114 -259 -349.5t-187 -423.5v-821q0 -25 -38 -95t-56 -70q-23 0 -23 40v1419q0 103 42 193t42 95q0 25 -44 40 q-14 4 -96 21q-93 19 -124 50q-45 46 -45 166z" />
<glyph unicode="Z" horiz-adv-x="811" d="M131 1229q0 70 32.5 142t65.5 72q22 0 22 -18q0 -4 -3 -11t-3 -11q0 -40 146 -40q122 0 169 -30q117 -75 117 -176q0 -78 -34 -150t-64 -72q-14 0 -14 14q0 4 2 10t2 10q0 21 -63 36q-48 12 -77 12q-50 -81 -50 -132q0 -30 46 -249.5t46 -268.5q0 -109 -44 -240 q-43 -127 -74 -127q-20 0 -20 18q0 8 16 59t16 79q0 24 -45 242.5t-45 265.5q0 186 94 360q-146 0 -188 43q-50 51 -50 162z" />
<glyph unicode="[" />
<glyph unicode="\" />
<glyph unicode="]" />
<glyph unicode="^" />
<glyph unicode="_" />
<glyph unicode="`" />
<glyph unicode="a" horiz-adv-x="1345" d="M137 0l12 51q131 14 131 88q0 33 -59.5 147t-59.5 178q0 170 194 369q-130 130 -153 163q-57 83 -57 204q0 86 58 168q53 75 97 75q17 0 17 -20q0 -12 -14 -33t-14 -31q0 -58 139 -197l329 -328l143 180q-69 56 -90 88q-26 41 -26 107q0 94 66 169q57 65 102 65 q18 0 18 -15q0 -5 -5 -12t-5 -17q0 -41 61 -92q94 -76 115 -101q61 -75 61 -174q0 -90 -37 -146q-33 -50 -80 -50q-20 0 -43 39q-34 57 -81 96l-151 -187l263 -265q78 -79 109 -132q41 -72 41 -163q0 -99 -61 -183q-53 -74 -94 -74q-19 0 -19 26q0 6 13 27.5t13 35.5 q0 57 -79 136l-590 589q-56 -79 -56 -147q0 -76 123 -233t123 -237q0 -72 -54.5 -118t-135.5 -46h-264z" />
<glyph unicode="b" horiz-adv-x="1500" d="M113 0l164 340h860v568q0 110 -162 110h-622q-79 0 -110 37q-40 47 -40 184q0 204 54 204q12 0 32 -43t78 -43h588q272 0 272 -290v-727h164l-178 -340h-1100z" />
<glyph unicode="c" horiz-adv-x="872" d="M117 0l85 340h405l-113 -340h-377zM178 1247q0 196 53 196q12 0 33 -42.5t71 -42.5h73q267 0 267 -301q0 -40 -10 -100t-10 -120q0 -72 45 -279t45 -326q0 -232 -28 -232q-22 0 -22 20q0 22 -60 224q-60 203 -60 270v10q1 12 1 22q0 120 12 200q0 125 12 163q5 16 5 29 q0 80 -173 80h-121q-69 0 -99 46q-34 52 -34 183z" />
<glyph unicode="d" horiz-adv-x="1448" d="M138 1238q0 205 56 205q8 0 31 -42.5t71 -42.5h880q59 0 97.5 -46t38.5 -122q0 -80 -44 -130q-38 -42 -80 -42v-844q0 -34 -34.5 -104t-55.5 -70q-31 0 -31 27q0 11 5 25q38 113 38 966h-826q-79 0 -110 41q-36 48 -36 179z" />
<glyph unicode="e" horiz-adv-x="1449" d="M139 1238q0 205 56 205q8 0 31 -42.5t71 -42.5h880q59 0 97.5 -46t38.5 -122q0 -82 -45 -130q-40 -42 -94 -42v-844q0 -34 -27 -104t-48 -70q-28 0 -28 32q0 9 2 20q21 113 21 966h-809q-79 0 -110 41q-36 48 -36 179zM150 41q0 27 21 61q24 38 33 63q18 49 18 100v15 q-1 45 -1 122q0 75 -6 117q-1 7 -1 17q0 43 39 120q36 71 69 71q26 0 26 -18q0 -6 -9 -40t-9 -66q0 -29 16.5 -108t16.5 -172q0 -180 -21 -222q-11 -22 -70 -61.5t-83 -39.5q-39 0 -39 41z" />
<glyph unicode="f" horiz-adv-x="760" d="M133 1240q0 203 52 203q12 0 33 -42.5t75 -42.5h129q99 0 150 -84q43 -72 43 -184v-926q0 -26 -54.5 -95t-73.5 -69q-43 0 -43 16q0 11 21 30q34 30 34 389q0 361 34 459q9 26 9 46q0 78 -127 78h-148q-68 0 -98 42q-36 51 -36 180z" />
<glyph unicode="g" horiz-adv-x="1327" d="M114 0l50 349l288 46q12 28 12 43q0 45 -82 199.5t-82 236.5q0 79 40 138q-72 22 -98 58q-31 43 -31 143q0 101 36 168q27 51 48 51q18 0 18 -20q0 -5 -2.5 -12t-2.5 -11q0 -15 111 -46q127 -35 157 -58q50 -38 50 -140q0 -66 -27.5 -143.5t-47.5 -77.5q-21 0 -21 17v14 q0 11 -26 16l-111 20q-15 -33 -15 -61q0 -55 85 -196.5t85 -213.5q0 -70 -31 -108l199 24q103 12 149 50q42 35 76 129l33 90q41 113 75 174q23 42 23 43q0 19 -45 37l-82 28q-120 42 -149 75q-36 41 -36 160q0 87 40 155q34 55 59 55q17 0 17 -18q0 -5 -2 -13t-2 -13 q0 -24 139 -72q185 -64 185 -176q0 -69 -45 -183q-69 -176 -71 -181q-38 -125 -65 -356q-32 -175 -103.5 -238t-274.5 -96z" />
<glyph unicode="h" horiz-adv-x="1450" d="M140 1238q0 205 56 205q8 0 30 -43t80 -43h874q66 0 102 -54q32 -46 32 -114q0 -76 -39.5 -124t-98.5 -48v-857q0 -20 -29 -90t-45 -70q-13 0 -17 4q-15 14 -12 44q1 9 1 22q22 286 22 948h-718q-76 -70 -76 -212q0 -15 31 -199t31 -293q0 -170 -26 -222q-8 -16 -67 -54 t-77 -38q-42 0 -42 42q0 8 23 80q26 82 26 140q0 12 -1 22q-2 20 -2 44q-8 47 -8 176q-2 32 -2 176q0 207 107 338q-80 0 -111 33q-44 48 -44 187z" />
<glyph unicode="i" horiz-adv-x="764" d="M139 1234q0 209 57 209q8 0 32 -43t69 -43h67q263 0 263 -301q0 -140 -19 -250q-17 -101 -39 -121q-8 -7 -24 -7q-25 0 -25 31q0 18 11.5 82t11.5 104q0 123 -156 123h-118q-130 0 -130 216z" />
<glyph unicode="j" horiz-adv-x="328" />
<glyph unicode="k" horiz-adv-x="1402" d="M113 0l164 340h564q378 0 378 354q0 144 -79 228q-90 96 -267 96h-530q-77 0 -108.5 49.5t-31.5 170.5q0 205 56 205q10 0 31 -43t77 -43h464q224 0 330 -136q122 -158 122 -532q0 -366 -137 -521q-148 -168 -517 -168h-516z" />
<glyph unicode="l" horiz-adv-x="1396" d="M137 1196v371q0 99 41 179q27 52 76 103q41 41 41 48q0 27 -79 56.5t-79 65.5q0 55 32 108q28 46 45 46q18 0 18 -7q0 -5 -2.5 -11t-2.5 -9q0 -8 44 -23q55 -20 82 -41q44 -34 44 -88q0 -33 -25 -71q-35 -52 -48 -90q-25 -75 -25 -196v-198q0 -47 18 -64t64 -17h676 q116 0 153 -79q8 -18 32 -162q28 -168 28 -324q0 -202 -143 -328l-134 -110q-93 -78 -135 -134q-10 -14 -96 -166q-42 -75 -97 -75q-40 0 -67 31.5t-27 74.5q0 97 114 197q103 89 250 143q123 45 208 150q41 51 41 160q0 139 -64 215q-55 65 -134 65h-648q-98 0 -144 34 q-57 42 -57 146z" />
<glyph unicode="m" horiz-adv-x="1370" d="M137 39q0 21 11 48q14 34 17 47q21 91 21 155q0 25 -2 35q-5 26 -8 114q-2 68 -2 155q0 215 201 378q-145 50 -178 83q-46 46 -46 174q0 93 59 161q47 54 77 54q20 0 20 -20q0 -4 -1.5 -10t-1.5 -10q0 -20 114 -66q84 -34 100 -48q43 -41 43 -143q0 -38 -13 -80 q46 12 93 24q65 24 65 60q0 40 -13.5 109t-13.5 95q0 64 63 64q67 0 160 -37q107 -42 185 -110q163 -143 163 -471q0 -333 -127 -800h-654l75 340h574q37 176 37 287q0 186 -129 293q-121 100 -312 100q-169 0 -297.5 -119.5t-128.5 -273.5q0 -70 18.5 -166t18.5 -144 q0 -193 -31 -229q-76 -88 -116 -88q-41 0 -41 39z" />
<glyph unicode="n" horiz-adv-x="854" d="M117 0l62 340h407q0 193 -7 247q-2 15 1 21q12 23 12 176q0 108 11 125q0 109 -180 109h-109q-70 0 -100 48q-33 52 -33 182q0 195 57 195q8 0 30 -42.5t68 -42.5h76q266 0 266 -292q0 -41 -12 -122t-12 -141q0 -67 35 -263t35 -269q0 -132 -41 -271h-566z" />
<glyph unicode="o" horiz-adv-x="1327" d="M114 0l50 349l288 46q12 28 12 43q0 45 -82 199.5t-82 236.5q0 79 40 138q-72 22 -98 58q-31 43 -31 143q0 101 36 168q27 51 48 51q18 0 18 -20q0 -5 -2.5 -12t-2.5 -11q0 -15 111 -46q127 -35 157 -58q50 -38 50 -140q0 -66 -27.5 -143.5t-47.5 -77.5q-21 0 -21 17v14 q0 11 -26 16l-111 20q-15 -33 -15 -61q0 -55 85 -196.5t85 -213.5q0 -70 -31 -108l199 24q103 12 149 50q42 35 76 129l33 90q41 113 75 174q23 42 23 43q0 19 -45 37l-82 28q-120 42 -149 75q-36 41 -36 160q0 87 40 155q34 55 59 55q17 0 17 -18q0 -5 -2 -13t-2 -13 q0 -24 139 -72q185 -64 185 -176q0 -69 -45 -183q-69 -176 -71 -181q-38 -125 -65 -356q-32 -175 -103.5 -238t-274.5 -96z" />
<glyph unicode="p" horiz-adv-x="1385" d="M121 0l89 340h969v297q0 196 -61 273q-85 108 -341 108h-380q-95 -88 -95 -135q0 -45 101 -45h177q57 0 97.5 -42.5t40.5 -101.5q0 -58 -38 -98.5t-93 -40.5h-274q-54 0 -87.5 -43t-38.5 -43q-16 0 -16 18q0 15 13.5 74t13.5 111q0 27 -6 70t-6 70q0 110 135 206 q-70 0 -99 45q-34 52 -34 185q0 195 55 195q10 0 31 -42.5t71 -42.5h475q237 0 337 -145.5t100 -483.5v-417l-111 -312h-1025z" />
<glyph unicode="q" horiz-adv-x="1354" d="M134 500q0 64 94 202q61 90 108 90q17 0 17 -33q-2 0 -40 -71q-40 -76 -40 -160q0 -181 37 -468.5t37 -377.5q0 -164 -30 -310q-34 -166 -90 -166q-77 0 -77 43q0 26 15 46q8 10 11 161q4 183 4 228v13q-1 22 -1 34q-12 144 -12 394q0 322 -12 330q-21 14 -21 45z M165 1247q0 196 57 196q8 0 29 -42.5t69 -42.5h591q171 0 245 -138.5t74 -451.5q0 -270 -90 -380q-56 -68 -253 -150q-55 -21 -111 -41q-85 -34 -152 -78q-23 -15 -86 -78q-41 -41 -66 -41q-43 0 -43 62q0 111 72 189q101 109 371 183q172 47 221 90q71 62 71 219 q0 129 -66 204q-62 71 -159 71h-642q-67 0 -96 42q-36 53 -36 187z" />
<glyph unicode="r" horiz-adv-x="1394" d="M138 1256q0 187 55 187q10 0 31.5 -42.5t70.5 -42.5h689q174 0 232 -126q35 -76 35 -248v-818q0 -26 -56 -96t-72 -70q42 0 42 44v779q2 50 2 78q0 117 -173 117h-723q-75 0 -104 53.5t-29 184.5z" />
<glyph unicode="s" horiz-adv-x="1551" d="M143 1229q0 97 41 162q33 52 57 52q18 0 18 -20q0 -5 -3.5 -11.5t-3.5 -9.5q0 -17 86 -52q114 -46 133 -64q36 -34 36 -133q0 -86 -43 -171q-37 -73 -55 -73q-12 0 -12 16q0 4 2 10t2 10q0 13 -31 24l-97 35q-48 -100 -48 -210q0 -92 55 -250q46 -131 88 -204h21 q196 317 296 682q-61 39 -77 93q-11 33 -11 125q0 80 39 146q34 57 60 57q18 0 18 -18q0 -5 -2 -12t-2 -12q0 -18 102 -60q93 -38 108 -52q42 -38 42 -137q0 -84 -43 -169q-37 -74 -56 -74q-12 0 -12 16q0 3 2 8t2 9q0 16 -21 23l-83 28q-39 -152 -125 -359 q-79 -189 -141 -294h531q29 69 185 342q113 197 113 284q0 21 -22 29l-80 20q-89 22 -120 62q-34 44 -34 153q0 95 42 161q33 52 55 52q20 0 20 -19q0 -5 -3.5 -11.5t-3.5 -11.5q0 -19 94 -55q91 -35 111 -54q43 -41 43 -142q0 -192 -125 -502q-102 -244 -203 -489 q-16 -41 -50 -159h-734q0 127 -81 373q-66 200 -66 352q0 167 65 302q-55 45 -69 89q-10 29 -10 113z" />
<glyph unicode="t" horiz-adv-x="1426" d="M116 0l59 340h153q-30 38 -55 112q-28 84 -28 159q0 198 115 407q-93 0 -124 41q-37 47 -37 197q0 187 56 187q7 0 30.5 -42.5t70.5 -42.5h661q110 0 189 -78q72 -71 72 -185v-925q0 -30 -13.5 -100t-29.5 -70q-20 0 -20 40v862q0 116 -182 116h-600q-92 -168 -92 -322 q0 -82 97 -231t97 -214q0 -109 -42 -180t-109 -71h-268z" />
<glyph unicode="u" horiz-adv-x="1404" d="M146 1235q0 87 41 153q34 55 57 55q22 0 22 -20q0 -6 -3 -12t-3 -10q0 -9 118 -54q104 -39 135 -70q39 -37 39 -116q0 -101 -44 -185q-35 -68 -54 -68q-11 0 -11 13q0 3 1.5 10t1.5 10q0 10 -56 33q-22 9 -60 25q-88 -150 -88 -262q0 -71 31 -191l52 -207h803 q76 216 76 338q0 147 -75 242q-79 101 -211 101q-97 0 -153.5 -70t-56.5 -187q0 -9 3 -33.5t3 -44.5q0 -60 -40 -60q-58 0 -58 136q0 65 52 230t52 252q0 21 -4 54t-4 50q0 29 10 35.5t44 6.5q157 0 297 -90q223 -142 223 -456q0 -184 -45 -406q-17 -85 -105 -437h-940 q0 123 -26 376q-20 195 -20 271q0 209 122 378q-73 34 -99.5 77.5t-26.5 132.5z" />
<glyph unicode="v" horiz-adv-x="328" />
<glyph unicode="w" horiz-adv-x="1551" d="M143 1229q0 97 41 162q33 52 57 52q18 0 18 -20q0 -5 -3.5 -11.5t-3.5 -9.5q0 -17 86 -52q114 -46 133 -64q36 -34 36 -133q0 -86 -43 -171q-37 -73 -55 -73q-12 0 -12 16q0 4 2 10t2 10q0 13 -31 24l-97 35q-48 -100 -48 -210q0 -92 55 -250q46 -131 88 -204h21 q196 317 296 682q-61 39 -77 93q-11 33 -11 125q0 80 39 146q34 57 60 57q18 0 18 -18q0 -5 -2 -12t-2 -12q0 -18 102 -60q93 -38 108 -52q42 -38 42 -137q0 -84 -43 -169q-37 -74 -56 -74q-12 0 -12 16q0 3 2 8t2 9q0 16 -21 23l-83 28q-39 -152 -125 -359 q-79 -189 -141 -294h531q29 69 185 342q113 197 113 284q0 21 -22 29l-80 20q-89 22 -120 62q-34 44 -34 153q0 95 42 161q33 52 55 52q20 0 20 -19q0 -5 -3.5 -11.5t-3.5 -11.5q0 -19 94 -55q91 -35 111 -54q43 -41 43 -142q0 -192 -125 -502q-102 -244 -203 -489 q-16 -41 -50 -159h-734q0 127 -81 373q-66 200 -66 352q0 167 65 302q-55 45 -69 89q-10 29 -10 113zM267 1655.5q0 63.5 120 88.5q96 -38 96 -88.5t-42 -89t-66 -38.5t-66 32t-42 95.5z" />
<glyph unicode="x" horiz-adv-x="1349" d="M139 1257q0 186 55 186q9 0 30.5 -42.5t73.5 -42.5h490q146 0 252 -93q191 -166 191 -586q0 -331 -141 -515q-146 -192 -423 -192q-241 0 -370 161q-123 153 -123 423q0 320 152 462q-111 0 -143 32q-44 45 -44 207zM240 690q0 -155 95.5 -263t238.5 -108h216 q156 0 265 101q113 103 113 260q0 152 -57 229q-80 109 -284 109h-423q-164 -153 -164 -328z" />
<glyph unicode="y" horiz-adv-x="1369" d="M133 0l105 340h739q39 0 39 9q0 10 -25 24l-397 225q-96 54 -96 167v193q0 60 -54 60h-166q-69 0 -98 45q-34 53 -34 186q0 194 56 194q8 0 29 -42.5t69 -42.5h114q162 0 162 -196v-211q0 -139 103 -187l145 -68l137 303l-79 39q-49 24 -69 63t-20 120q0 68 28.5 139.5 t57.5 71.5q16 0 16 -20q0 -4 -2 -11t-2 -11q0 -14 125 -51q111 -33 135 -50q58 -40 58 -140q0 -75 -29 -171q-28 -91 -46 -91q-20 0 -20 22t-24 33l-76 36l-133 -310l113 -54q145 -69 198 -133q45 -54 45 -138q0 -120 -108 -343h-996z" />
<glyph unicode="z" horiz-adv-x="811" d="M131 1229q0 70 32.5 142t65.5 72q22 0 22 -18q0 -4 -3 -11t-3 -11q0 -40 146 -40q122 0 169 -30q117 -75 117 -176q0 -78 -34 -150t-64 -72q-14 0 -14 14q0 4 2 10t2 10q0 21 -63 36q-48 12 -77 12q-50 -81 -50 -132q0 -30 46 -249.5t46 -268.5q0 -109 -44 -240 q-43 -127 -74 -127q-20 0 -20 18q0 8 16 59t16 79q0 24 -45 242.5t-45 265.5q0 186 94 360q-146 0 -188 43q-50 51 -50 162z" />
<glyph unicode="{" />
<glyph unicode="|" />
<glyph unicode="}" />
<glyph unicode="~" />
<glyph />
<glyph />
<glyph />
<glyph />
<glyph />
<glyph unicode="&#x85;" />
<glyph />
<glyph />
<glyph />
<glyph />
<glyph />
<glyph />
<glyph />
<glyph />
<glyph />
<glyph />
<glyph />
<glyph />
<glyph />
<glyph />
<glyph />
<glyph />
<glyph />
<glyph />
<glyph />
<glyph />
<glyph />
<glyph />
<glyph />
<glyph />
<glyph />
<glyph />
<glyph unicode="&#xa0;" />
<glyph unicode="&#xa1;" />
<glyph unicode="&#xa2;" />
<glyph unicode="&#xa3;" />
<glyph unicode="&#xa4;" />
<glyph unicode="&#xa6;" />
<glyph unicode="&#xa7;" />
<glyph unicode="&#xa8;" />
<glyph unicode="&#xa9;" />
<glyph unicode="&#xaa;" />
<glyph unicode="&#xab;" />
<glyph unicode="&#xac;" horiz-adv-x="328" />
<glyph unicode="&#xad;" />
<glyph unicode="&#xae;" />
<glyph unicode="&#xaf;" horiz-adv-x="328" />
<glyph unicode="&#xb0;" />
<glyph unicode="&#xb1;" />
<glyph unicode="&#xb2;" />
<glyph unicode="&#xb3;" />
<glyph unicode="&#xb4;" />
<glyph unicode="&#xb5;" />
<glyph unicode="&#xb6;" />
<glyph unicode="&#xb9;" />
<glyph unicode="&#xbb;" horiz-adv-x="328" />
<glyph unicode="&#xbc;" />
<glyph unicode="&#xbd;" />
<glyph unicode="&#xbe;" />
<glyph unicode="&#xbf;" horiz-adv-x="328" />
<glyph unicode="&#xc0;" horiz-adv-x="328" />
<glyph unicode="&#xc3;" horiz-adv-x="328" />
<glyph unicode="&#xc4;" horiz-adv-x="328" />
<glyph unicode="&#xc5;" horiz-adv-x="328" />
<glyph unicode="&#xc7;" horiz-adv-x="328" />
<glyph unicode="&#xc9;" horiz-adv-x="328" />
<glyph unicode="&#xcd;" horiz-adv-x="328" />
<glyph unicode="&#xd0;" horiz-adv-x="328" />
<glyph unicode="&#xd1;" horiz-adv-x="328" />
<glyph unicode="&#xd5;" horiz-adv-x="328" />
<glyph unicode="&#xd6;" horiz-adv-x="328" />
<glyph unicode="&#xd7;" horiz-adv-x="328" />
<glyph unicode="&#xd8;" />
<glyph unicode="&#xdc;" horiz-adv-x="328" />
<glyph unicode="&#xdd;" horiz-adv-x="328" />
<glyph unicode="&#xde;" horiz-adv-x="328" />
<glyph unicode="&#xdf;" horiz-adv-x="328" />
<glyph unicode="&#xe0;" horiz-adv-x="328" />
<glyph unicode="&#xe1;" horiz-adv-x="328" />
<glyph unicode="&#xe2;" horiz-adv-x="328" />
<glyph unicode="&#xe3;" horiz-adv-x="328" />
<glyph unicode="&#xe4;" horiz-adv-x="328" />
<glyph unicode="&#xe5;" horiz-adv-x="328" />
<glyph unicode="&#xe6;" horiz-adv-x="328" />
<glyph unicode="&#xe7;" horiz-adv-x="328" />
<glyph unicode="&#xe8;" horiz-adv-x="328" />
<glyph unicode="&#xe9;" horiz-adv-x="328" />
<glyph unicode="&#xea;" horiz-adv-x="328" />
<glyph unicode="&#xeb;" horiz-adv-x="328" />
<glyph unicode="&#xec;" horiz-adv-x="328" />
<glyph unicode="&#xed;" horiz-adv-x="328" />
<glyph unicode="&#xee;" horiz-adv-x="328" />
<glyph unicode="&#xef;" horiz-adv-x="328" />
<glyph unicode="&#xf0;" horiz-adv-x="328" />
<glyph unicode="&#xf1;" horiz-adv-x="328" />
<glyph unicode="&#xf2;" horiz-adv-x="328" />
<glyph unicode="&#xf3;" horiz-adv-x="328" />
<glyph unicode="&#xf4;" horiz-adv-x="328" />
<glyph unicode="&#xf5;" horiz-adv-x="328" />
<glyph unicode="&#xf6;" horiz-adv-x="328" />
<glyph unicode="&#xf7;" horiz-adv-x="328" />
<glyph unicode="&#xf8;" />
<glyph unicode="&#xf9;" horiz-adv-x="328" />
<glyph unicode="&#xfa;" horiz-adv-x="328" />
<glyph unicode="&#xfb;" horiz-adv-x="328" />
<glyph unicode="&#xfc;" horiz-adv-x="328" />
<glyph unicode="&#xfd;" horiz-adv-x="328" />
<glyph unicode="&#xfe;" horiz-adv-x="328" />
<glyph unicode="&#x152;" horiz-adv-x="328" />
<glyph unicode="&#x153;" horiz-adv-x="328" />
<glyph unicode="&#x178;" horiz-adv-x="328" />
<glyph unicode="&#x2018;" horiz-adv-x="328" />
<glyph unicode="&#x201c;" horiz-adv-x="328" />
<glyph unicode="&#x201d;" horiz-adv-x="328" />
<glyph unicode="&#x2022;" />
<glyph unicode="&#x2122;" />
<glyph unicode="&#x25fc;" horiz-adv-x="1445" d="M0 0v1445h1445v-1445h-1445z" />
</font>
</defs>
</svg>
